<svg width="48" height="48" viewBox="0 0 48 48" fill="none" xmlns="http://www.w3.org/2000/svg">
  <circle cx="24" cy="24" r="20" fill="#1E40AF"/>
  <path d="M16 28C16 28 18 32 24 32C30 32 32 28 32 28" stroke="white" stroke-width="2" stroke-linecap="round"/>
  <path d="M24 8C24 8 28 12 28 16C28 20 24 24 24 24C24 24 20 20 20 16C20 12 24 8 24 8Z" fill="white"/>
  <circle cx="24" cy="16" r="3" fill="#1E40AF"/>
  <path d="M12 36C14 34 18 32 24 32C30 32 34 34 36 36" stroke="#60A5FA" stroke-width="2" stroke-linecap="round"/>
</svg>
